<svg width="13.000000" height="12.000000" viewBox="0 0 13 12" fill="none" xmlns="http://www.w3.org/2000/svg" xmlns:xlink="http://www.w3.org/1999/xlink">
	<desc>
			Created with Pixso.
	</desc>
	<defs/>
	<path id="Vector" d="M0.27 5.29C-0.1 5.68 -0.1 6.31 0.27 6.7L4.91 11.7C5.27 12.09 5.86 12.09 6.22 11.7C6.59 11.31 6.59 10.68 6.22 10.29L3.16 6.99L12.07 6.99C12.58 6.99 13 6.55 13 6C13 5.44 12.58 5 12.07 5L3.17 5L6.22 1.7C6.58 1.31 6.58 0.68 6.22 0.29C5.86 -0.1 5.27 -0.1 4.91 0.29L0.26 5.29L0.27 5.29Z" fill="#838383" fill-opacity="1.000000" fill-rule="nonzero"/>
</svg>
