<svg width="13.000000" height="12.000000" viewBox="0 0 13 12" fill="none" xmlns="http://www.w3.org/2000/svg" xmlns:xlink="http://www.w3.org/1999/xlink">
	<desc>
			Created with Pixso.
	</desc>
	<defs/>
	<path id="Vector" d="M12.72 6.7C13.09 6.31 13.09 5.68 12.72 5.29L8.08 0.29C7.72 -0.1 7.13 -0.1 6.77 0.29C6.4 0.68 6.4 1.31 6.77 1.7L9.83 5L0.92 5C0.41 5 0 5.44 0 6C0 6.55 0.41 6.99 0.92 6.99L9.82 6.99L6.77 10.29C6.41 10.68 6.41 11.31 6.77 11.7C7.13 12.09 7.72 12.09 8.08 11.7L12.73 6.7L12.72 6.7Z" fill="#838383" fill-opacity="1.000000" fill-rule="nonzero"/>
</svg>
