<svg width="12.000000" height="9.000000" viewBox="0 0 12 9" fill="none" xmlns="http://www.w3.org/2000/svg" xmlns:xlink="http://www.w3.org/1999/xlink">
	<desc>
			Created with Pixso.
	</desc>
	<defs/>
	<path id="Vector" d="M10.17 0.76C10.17 0.75 10.16 0.74 10.15 0.74C9.38 0.39 8.55 0.14 7.71 0C7.7 -0.01 7.7 0 7.69 0C7.68 0 7.68 0.01 7.67 0.01C7.56 0.21 7.46 0.42 7.37 0.63C6.46 0.49 5.53 0.49 4.62 0.63C4.53 0.42 4.43 0.21 4.32 0.01C4.31 0.01 4.31 0 4.3 0C4.29 0 4.28 -0.01 4.28 0C3.43 0.14 2.61 0.39 1.83 0.74C1.83 0.74 1.82 0.75 1.82 0.75C0.26 3.04 -0.16 5.27 0.04 7.48C0.05 7.48 0.05 7.49 0.05 7.49C0.05 7.5 0.06 7.5 0.06 7.5C0.97 8.16 1.98 8.67 3.06 8.99C3.06 9 3.07 9 3.08 8.99C3.09 8.99 3.09 8.99 3.1 8.98C3.33 8.67 3.54 8.34 3.71 8C3.71 7.99 3.72 7.99 3.72 7.98C3.72 7.98 3.72 7.97 3.71 7.97C3.71 7.96 3.71 7.96 3.7 7.95C3.7 7.95 3.7 7.95 3.69 7.95C3.37 7.82 3.05 7.68 2.75 7.51C2.75 7.5 2.74 7.5 2.74 7.49C2.74 7.49 2.74 7.48 2.74 7.48C2.74 7.47 2.74 7.46 2.74 7.46C2.74 7.45 2.75 7.45 2.75 7.44C2.81 7.4 2.88 7.35 2.94 7.3C2.94 7.3 2.95 7.29 2.96 7.29C2.96 7.29 2.97 7.29 2.98 7.3C4.94 8.18 7.07 8.18 9.01 7.3C9.01 7.29 9.02 7.29 9.03 7.29C9.03 7.29 9.04 7.3 9.05 7.3C9.11 7.35 9.17 7.4 9.23 7.44C9.24 7.45 9.24 7.45 9.24 7.46C9.25 7.46 9.25 7.47 9.25 7.48C9.25 7.48 9.25 7.49 9.24 7.49C9.24 7.5 9.23 7.5 9.23 7.51C8.93 7.68 8.62 7.83 8.29 7.95C8.29 7.95 8.28 7.95 8.28 7.95C8.27 7.96 8.27 7.96 8.27 7.97C8.27 7.97 8.27 7.98 8.27 7.98C8.27 7.99 8.27 7.99 8.27 8C8.45 8.34 8.66 8.67 8.88 8.98C8.89 8.99 8.9 8.99 8.9 8.99C8.91 9 8.92 9 8.93 8.99C10.01 8.67 11.02 8.16 11.93 7.5C11.93 7.5 11.94 7.5 11.94 7.49C11.94 7.49 11.94 7.48 11.94 7.48C12.19 4.93 11.52 2.72 10.17 0.76ZM4.01 6.13C3.41 6.13 2.93 5.6 2.93 4.94C2.93 4.29 3.4 3.75 4.01 3.75C4.61 3.75 5.09 4.29 5.08 4.94C5.08 5.6 4.61 6.13 4.01 6.13ZM7.99 6.13C7.4 6.13 6.91 5.6 6.91 4.94C6.91 4.29 7.39 3.75 7.99 3.75C8.6 3.75 9.08 4.29 9.07 4.94C9.07 5.6 8.6 6.13 7.99 6.13Z" fill="#838383" fill-opacity="1.000000" fill-rule="nonzero"/>
</svg>
