<svg width="12.000000" height="12.000000" viewBox="0 0 12 12" fill="none" xmlns="http://www.w3.org/2000/svg" xmlns:xlink="http://www.w3.org/1999/xlink">
	<desc>
			Created with Pixso.
	</desc>
	<defs/>
	<path id="Vector" d="M8.25 6C8.25 6.52 8.22 7.02 8.17 7.5L3.82 7.5C3.77 7.02 3.75 6.52 3.75 6C3.75 5.47 3.77 4.97 3.82 4.5L8.17 4.5C8.22 4.97 8.25 5.47 8.25 6ZM8.92 4.5L11.81 4.5C11.93 4.98 12 5.48 12 6C12 6.51 11.93 7.01 11.81 7.5L8.92 7.5C8.97 7.01 9 6.51 9 6C9 5.48 8.97 4.98 8.92 4.5ZM11.56 3.75L8.82 3.75C8.59 2.25 8.13 0.99 7.53 0.19C9.36 0.68 10.86 2.01 11.56 3.75L11.56 3.75ZM8.06 3.75L3.93 3.75C4.07 2.89 4.29 2.14 4.56 1.53C4.8 0.97 5.08 0.57 5.34 0.32C5.61 0.07 5.82 0 6 0C6.17 0 6.38 0.07 6.65 0.32C6.91 0.57 7.19 0.97 7.43 1.53C7.7 2.13 7.92 2.89 8.06 3.75ZM3.17 3.75L0.43 3.75C1.13 2.01 2.62 0.68 4.46 0.19C3.86 0.99 3.4 2.25 3.17 3.75ZM0.18 4.5L3.07 4.5C3.02 4.98 3 5.48 3 6C3 6.51 3.02 7.01 3.07 7.5L0.18 7.5C0.06 7.01 0 6.51 0 6C0 5.48 0.06 4.98 0.18 4.5ZM4.56 10.46C4.29 9.85 4.07 9.1 3.93 8.25L8.06 8.25C7.92 9.1 7.7 9.85 7.43 10.46C7.19 11.02 6.91 11.42 6.65 11.67C6.38 11.92 6.17 12 6 12C5.82 12 5.61 11.92 5.34 11.67C5.08 11.42 4.8 11.02 4.56 10.46L4.56 10.46ZM3.17 8.25C3.4 9.74 3.86 11 4.46 11.8C2.62 11.31 1.13 9.98 0.43 8.25L3.17 8.25ZM11.56 8.25C10.86 9.98 9.37 11.31 7.53 11.8C8.13 11 8.59 9.74 8.83 8.25L11.56 8.25Z" fill="#838383" fill-opacity="1.000000" fill-rule="nonzero"/>
</svg>
