<svg width="10.000061" height="10.000061" viewBox="0 0 10.0001 10.0001" fill="none" xmlns="http://www.w3.org/2000/svg" xmlns:xlink="http://www.w3.org/1999/xlink">
	<desc>
			Created with Pixso.
	</desc>
	<defs/>
	<path id="Vector" d="M0.42 1.33C0.19 1.09 0.2 0.7 0.45 0.45C0.7 0.2 1.09 0.18 1.33 0.42L9.57 8.66C9.81 8.9 9.79 9.29 9.54 9.54C9.29 9.79 8.9 9.8 8.66 9.57L0.42 1.33Z" fill="#95989D" fill-opacity="1.000000" fill-rule="nonzero"/>
	<path id="Vector" d="M1.33 9.57C1.09 9.8 0.7 9.79 0.45 9.54C0.2 9.29 0.19 8.9 0.42 8.66L8.66 0.42C8.9 0.18 9.29 0.2 9.54 0.45C9.79 0.7 9.81 1.09 9.57 1.33L1.33 9.57Z" fill="#95989D" fill-opacity="1.000000" fill-rule="nonzero"/>
</svg>
