<svg width="7.000000" height="12.000000" viewBox="0 0 7 12" fill="none" xmlns="http://www.w3.org/2000/svg" xmlns:xlink="http://www.w3.org/1999/xlink">
	<desc>
			Created with Pixso.
	</desc>
	<defs/>
	<path id="Vector" d="M3.51 0C3.94 0 4.29 0.33 4.29 0.75L4.29 1.58C4.33 1.59 4.36 1.59 4.4 1.6C4.41 1.6 4.42 1.6 4.43 1.6L5.59 1.81C6.01 1.88 6.29 2.28 6.21 2.68C6.13 3.09 5.73 3.36 5.31 3.28L4.16 3.08C3.41 2.97 2.74 3.04 2.27 3.22C1.8 3.41 1.61 3.65 1.57 3.88C1.52 4.13 1.56 4.27 1.6 4.36C1.64 4.45 1.73 4.56 1.91 4.67C2.3 4.92 2.91 5.09 3.69 5.29L3.76 5.31C4.45 5.48 5.3 5.7 5.92 6.1C6.27 6.32 6.59 6.61 6.79 7.02C7 7.44 7.04 7.91 6.95 8.41C6.78 9.3 6.15 9.9 5.36 10.21C5.03 10.34 4.67 10.42 4.29 10.47L4.29 11.25C4.29 11.66 3.94 12 3.51 12C3.09 12 2.74 11.66 2.74 11.25L2.74 10.43C2.73 10.42 2.72 10.42 2.71 10.42L2.7 10.42C2.11 10.33 1.15 10.09 0.49 9.81C0.1 9.64 -0.07 9.19 0.1 8.82C0.27 8.44 0.73 8.27 1.12 8.44C1.63 8.66 2.46 8.87 2.94 8.94C3.71 9.05 4.35 8.99 4.78 8.82C5.19 8.66 5.37 8.42 5.42 8.14C5.47 7.89 5.43 7.75 5.39 7.66C5.35 7.57 5.26 7.47 5.08 7.35C4.68 7.1 4.08 6.94 3.29 6.74L3.22 6.72C2.53 6.54 1.69 6.32 1.06 5.92C0.71 5.71 0.39 5.41 0.19 5C-0.01 4.58 -0.05 4.11 0.04 3.61C0.22 2.71 0.91 2.13 1.7 1.83C2.02 1.71 2.37 1.62 2.74 1.57L2.74 0.75C2.74 0.33 3.09 0 3.51 0Z" fill="#838383" fill-opacity="1.000000" fill-rule="nonzero"/>
</svg>
