<svg width="12.000000" height="12.000000" viewBox="0 0 12 12" fill="none" xmlns="http://www.w3.org/2000/svg" xmlns:xlink="http://www.w3.org/1999/xlink">
	<desc>
			Created with Pixso.
	</desc>
	<defs/>
	<path id="Vector" d="M4.01 9.66C4.01 9.71 3.95 9.75 3.88 9.75C3.8 9.75 3.75 9.71 3.75 9.66C3.75 9.61 3.8 9.57 3.87 9.57C3.95 9.56 4.01 9.6 4.01 9.66ZM3.26 9.55C3.24 9.6 3.29 9.65 3.36 9.67C3.42 9.69 3.5 9.67 3.51 9.62C3.52 9.57 3.48 9.51 3.41 9.49C3.34 9.47 3.27 9.5 3.26 9.55ZM4.33 9.5C4.26 9.52 4.21 9.57 4.21 9.63C4.22 9.67 4.28 9.71 4.36 9.69C4.43 9.67 4.48 9.63 4.47 9.58C4.46 9.53 4.4 9.5 4.33 9.5ZM5.92 0C2.56 0 0 2.61 0 6.05C0 8.8 1.68 11.16 4.1 11.98C4.41 12.04 4.51 11.85 4.51 11.68C4.51 11.53 4.51 10.68 4.51 10.16C4.51 10.16 2.81 10.53 2.46 9.42C2.46 9.42 2.18 8.7 1.79 8.51C1.79 8.51 1.23 8.12 1.82 8.13C1.82 8.13 2.43 8.18 2.76 8.77C3.29 9.73 4.18 9.45 4.52 9.29C4.58 8.89 4.73 8.62 4.91 8.45C3.56 8.3 2.19 8.1 2.19 5.71C2.19 5.03 2.38 4.69 2.76 4.25C2.7 4.09 2.49 3.42 2.83 2.57C3.33 2.4 4.5 3.24 4.5 3.24C4.98 3.1 5.5 3.02 6.01 3.02C6.53 3.02 7.05 3.1 7.53 3.24C7.53 3.24 8.7 2.4 9.2 2.57C9.53 3.43 9.33 4.09 9.27 4.25C9.65 4.69 9.89 5.03 9.89 5.71C9.89 8.11 8.47 8.3 7.11 8.45C7.34 8.65 7.52 9.02 7.52 9.61C7.52 10.44 7.52 11.48 7.52 11.68C7.52 11.84 7.63 12.04 7.94 11.98C10.35 11.16 12 8.8 12 6.05C12 2.61 9.27 0 5.92 0ZM2.35 8.55C2.32 8.58 2.32 8.64 2.36 8.68C2.4 8.72 2.46 8.74 2.49 8.71C2.52 8.68 2.51 8.63 2.47 8.58C2.43 8.54 2.38 8.52 2.35 8.55ZM2.09 8.35C2.07 8.38 2.09 8.42 2.14 8.45C2.18 8.47 2.23 8.47 2.25 8.43C2.26 8.4 2.24 8.36 2.19 8.33C2.14 8.32 2.1 8.33 2.09 8.35ZM2.87 9.24C2.83 9.27 2.84 9.34 2.9 9.39C2.96 9.45 3.03 9.45 3.06 9.41C3.09 9.38 3.07 9.31 3.03 9.26C2.97 9.2 2.9 9.2 2.87 9.24ZM2.59 8.87C2.55 8.9 2.55 8.96 2.59 9.02C2.63 9.07 2.7 9.1 2.73 9.07C2.77 9.04 2.77 8.98 2.73 8.92C2.69 8.86 2.63 8.84 2.59 8.87Z" fill="#838383" fill-opacity="1.000000" fill-rule="nonzero"/>
</svg>
