<svg width="12.000000" height="12.000000" viewBox="0 0 12 12" fill="none" xmlns="http://www.w3.org/2000/svg" xmlns:xlink="http://www.w3.org/1999/xlink">
	<desc>
			Created with Pixso.
	</desc>
	<defs/>
	<path id="Vector" d="M7.71 0.85C7.71 1.33 7.33 1.71 6.85 1.71L0.85 1.71C0.38 1.71 0 1.33 0 0.85C0 0.38 0.38 0 0.85 0L6.85 0C7.33 0 7.71 0.38 7.71 0.85ZM7.71 7.71C7.71 8.18 7.33 8.57 6.85 8.57L0.85 8.57C0.38 8.57 0 8.18 0 7.71C0 7.24 0.38 6.85 0.85 6.85L6.85 6.85C7.33 6.85 7.71 7.24 7.71 7.71ZM0 4.28C0 3.81 0.38 3.42 0.85 3.42L11.14 3.42C11.61 3.42 12 3.81 12 4.28C12 4.75 11.61 5.14 11.14 5.14L0.85 5.14C0.38 5.14 0 4.75 0 4.28ZM12 11.14C12 11.61 11.61 12 11.14 12L0.85 12C0.38 12 0 11.61 0 11.14C0 10.66 0.38 10.28 0.85 10.28L11.14 10.28C11.61 10.28 12 10.66 12 11.14Z" fill="#666CFF" fill-opacity="1.000000" fill-rule="nonzero"/>
</svg>
