<svg width="12.000000" height="12.000000" viewBox="0 0 12 12" fill="none" xmlns="http://www.w3.org/2000/svg" xmlns:xlink="http://www.w3.org/1999/xlink">
	<desc>
			Created with Pixso.
	</desc>
	<defs/>
	<path id="Vector" d="M5.62 0.09C5.85 -0.04 6.13 -0.04 6.37 0.09L10.39 2.39L10.49 2.43L10.49 2.45L11.62 3.1C11.91 3.26 12.06 3.61 11.97 3.94C11.88 4.27 11.59 4.5 11.25 4.5L0.74 4.5C0.4 4.5 0.11 4.27 0.02 3.94C-0.07 3.61 0.08 3.26 0.37 3.1L1.49 2.45L1.49 2.43L1.6 2.39L5.62 0.09ZM1.49 5.25L2.99 5.25L2.99 9.75L3.93 9.75L3.93 5.25L5.43 5.25L5.43 9.75L6.56 9.75L6.56 5.25L8.06 5.25L8.06 9.75L8.99 9.75L8.99 5.25L10.49 5.25L10.49 9.85C10.51 9.85 10.52 9.86 10.54 9.87L11.66 10.62C11.93 10.8 12.06 11.15 11.96 11.46C11.87 11.78 11.57 12 11.24 12L0.74 12C0.41 12 0.12 11.78 0.03 11.46C-0.07 11.15 0.05 10.8 0.33 10.62L1.45 9.87C1.47 9.86 1.48 9.86 1.5 9.85L1.5 5.25L1.49 5.25Z" fill="#666CFF" fill-opacity="1.000000" fill-rule="nonzero"/>
</svg>
